<?xml version="1.0" encoding="UTF-8"?><svg id="Layer_1" xmlns="http://www.w3.org/2000/svg" viewBox="0 0 600 200"><defs><style>.cls-1{fill:#1b242e;}</style></defs><path class="cls-1" d="m11.32,166.52v-23.37c7.67,1.05,85.32,1.57,89.33,1.57,7.15,0,10.11-1.74,10.11-5.41,0-2.96-2.09-5.58-8.02-9.94l-5.41-4.01c-10.64-7.85-15-15.17-15-25.46,0-17.09,12.38-27.03,34-27.03,4.53,0,19.2.35,24.6,1.22v21.45c-5.06-.7-18.85-.87-21.11-.87-7.32,0-10.81,1.74-10.81,4.71,0,2.09,1.74,4.01,7.5,8.02l4.88,3.49c12.55,8.89,17.79,17.26,17.79,28.25,0,18.13-13.6,28.77-36.97,28.77-5.23,0-84.1-.52-90.9-1.4Z"/><path class="cls-1" d="m154.18,31.73h27.55v24.59c0,8.02-.17,16.22-.35,23.54,5.06-5.23,12.73-8.02,21.62-8.02,20.4,0,32.08,14.47,32.08,39.58v55.1h-27.55v-53.18c0-10.46-4.36-15.87-12.55-15.87s-13.25,5.41-13.25,15.87v53.18h-27.55V31.73Z"/><path class="cls-1" d="m249.39,120.31c0-28.42,21.1-47.95,46.03-47.95,10.29,0,20.4,3.49,26.68,10.11l.17-8.37h24.41v92.42h-24.41l-.17-8.37c-6.28,6.63-16.39,10.11-26.68,10.11-24.93,0-46.03-19.53-46.03-47.95Zm49.69,22.84c12.55,0,21.8-8.89,21.8-22.84s-9.24-22.84-21.8-22.84-22.14,8.89-22.14,22.84,9.42,22.84,22.14,22.84Z"/><path class="cls-1" d="m398.12,74.11h11.86v24.76h-9.24c-5.58,0-8.02,2.44-8.02,8.02v59.63h-27.55v-58.94c0-23.19,12.38-33.48,32.96-33.48Z"/><path class="cls-1" d="m454.27,74.11h11.86v24.76h-9.24c-5.58,0-8.02,2.44-8.02,8.02v59.63h-27.55v-58.94c0-23.19,12.38-33.48,32.96-33.48Z"/><path class="cls-1" d="m588.68,86.11l-53.01-43v31h-25.3c-20.58,0-32.96,10.29-32.96,33.48v58.94h27.55v-59.63c0-5.58,2.44-8.02,8.02-8.02h22.68v30.25l53.01-43Z"/></svg>