<?xml version="1.0" encoding="UTF-8"?><svg id="Layer_1" xmlns="http://www.w3.org/2000/svg" viewBox="0 0 500 160"><defs><style>.cls-1{fill:#1b242e;}</style></defs><path class="cls-1" d="m14.82,133.74v-19.01c6.24.85,69.4,1.28,72.66,1.28,5.82,0,8.23-1.42,8.23-4.4,0-2.41-1.7-4.54-6.52-8.08l-4.4-3.26c-8.65-6.38-12.2-12.34-12.2-20.71,0-13.9,10.07-21.98,27.66-21.98,3.69,0,15.62.28,20.01.99v17.45c-4.11-.57-15.33-.71-17.18-.71-5.96,0-8.79,1.42-8.79,3.83,0,1.7,1.42,3.26,6.1,6.52l3.97,2.84c10.21,7.23,14.47,14.04,14.47,22.98,0,14.75-11.06,23.4-30.07,23.4-4.26,0-68.41-.43-73.94-1.13Z"/><path class="cls-1" d="m131.03,24.1h22.41v20c0,6.52-.14,13.19-.28,19.15,4.11-4.26,10.35-6.52,17.59-6.52,16.59,0,26.1,11.77,26.1,32.2v44.82h-22.41v-43.26c0-8.51-3.55-12.91-10.21-12.91s-10.78,4.4-10.78,12.91v43.26h-22.41V24.1Z"/><path class="cls-1" d="m208.47,96.16c0-23.12,17.16-39.01,37.44-39.01,8.37,0,16.6,2.84,21.7,8.23l.14-6.81h19.86v75.17h-19.86l-.14-6.81c-5.11,5.39-13.33,8.23-21.7,8.23-20.28,0-37.44-15.89-37.44-39.01Zm40.42,18.58c10.21,0,17.73-7.23,17.73-18.58s-7.52-18.58-17.73-18.58-18.01,7.23-18.01,18.58,7.66,18.58,18.01,18.58Z"/><path class="cls-1" d="m329.46,58.57h9.65v20.14h-7.52c-4.54,0-6.52,1.99-6.52,6.52v48.51h-22.41v-47.94c0-18.86,10.07-27.23,26.81-27.23Z"/><path class="cls-1" d="m375.13,58.57h9.65v20.14h-7.52c-4.54,0-6.52,1.99-6.52,6.52v48.51h-22.41v-47.94c0-18.86,10.07-27.23,26.81-27.23Z"/><path class="cls-1" d="m420.77,58.57h26.39v20.14h-24.27c-4.54,0-6.52,1.99-6.52,6.52v48.51h-22.41v-47.94c0-18.86,10.07-27.23,26.81-27.23Z"/><polygon class="cls-1" points="484.47 68.34 441.35 33.36 441.35 103.32 484.47 68.34"/></svg>