<?xml version="1.0" encoding="UTF-8"?><svg id="Layer_1" xmlns="http://www.w3.org/2000/svg" viewBox="0 0 400 400"><defs><style>.cls-1{fill:#ff0083;}.cls-2{fill:#1b242e;}</style></defs><path class="cls-2" d="m387.67,307.21c-20.78,2.44-41.56,4.89-63.39,7.46,1.29-16.87,2.54-33.29,3.78-49.52-1.08.12-2.1.24-3.06.35-1.39,12.14-2.77,24.27-4.09,36.42-1.5,13.76-1.33,13.78-14.73,15.08-1.28.12-2.82-.18-3.77.44-1.69,1.1-3.95,2.52-4.36,4.2-2.78,11.31-10.09,18.03-20.83,21.39-18.4,5.75-36.8,3.05-55.11-.58-1.41-.28-3.52-2.95-3.36-4.27,1.89-15.84,4.15-31.64,6.39-48,21.62,1.98,40.59,9.93,60.3,18.48-.65-1.66-.72-2.33-1.09-2.7-14.73-15.07-15.95-33.65-12.36-52.68,5.63-29.9,20.18-55.54,40.37-78.1,1.35-1.51,2.65-3.07,3.77-4.38-26.62,7.86-53.21,15.71-81.11,23.94.65-9.17,1.33-16.12,1.58-23.09.16-4.4,2.2-6.23,6.39-5.96,4.9.31,9.82.5,14.69,1.09,9.94,1.22,19.86,2.67,29.78,4.03-1.18-1.84-2.58-2.73-4.01-3.58-13.99-8.33-16.29-17.54-6.36-30.5,5.93-7.74,13.37-14.33,20.1-21.46,1.97-2.09,3.88-4.24,5.82-6.36-.25-.43-.5-.87-.75-1.3-19.16,4.46-38.31,8.92-57.92,13.48-.32-2.56-.55-4.43-.79-6.3-.13,7.3-5.44,8.51-10.83,9.87-14.13,3.56-28.07,7.68-39.41,17.47-6.98,6.03-10.69,13.62-7.88,22.82,3.98,13.04,12.54,22.81,23.69,30.4-1.07,1.03-1.98,2.63-3.23,2.98-15.43,4.2-25.69,14.37-31.64,28.63-13.77,32.99-11.79,65.37,5.29,96.76,1.51,2.79,3.8,5.15,5.72,7.72-.54-4.81-2.46-8.79-3.87-12.94-3.51-10.31-1.37-18.53,6.24-23.32,8.1-5.09,17.27-6.6,26.45-7.46.41.89.77,1.3.73,1.65-1.99,15.66-3.91,31.33-6.23,46.95-.19,1.3-3.23,3.2-4.82,3.09-4.64-.32-9.22-1.5-13.81-2.38-16.94-3.23-33.9-6.4-50.8-9.84-1.98-.4-5.12-2.27-5.21-3.64-.51-7.49-.24-15.03-.24-22.55.76-.42,1.52-.84,2.28-1.25,10.11,8.32,20.22,16.64,30.33,24.96-11.95-16.61-25.13-32.4-24.13-54.53.98-21.48,13.41-37.77,26.61-54.89-10.05,1.71-18.43,3.1-26.79,4.56-3.63.63-5.25-.8-5.05-4.46.09-1.7,0-3.42,0-5.13.07-7.01.72-7.51,7.34-5.64,7.58,2.14,15.17,4.27,24.59,6.92-8.15-10.02-16.48-17.59-17.16-29.38-.7-12.08,8.09-19.33,16.23-28.75-10.84,1.92-19.73,3.49-29.6,5.24v-18.36c-2.11,4.9-2.46,9.99-4.04,14.68-.83,2.46-3.45,5.18-5.89,6.07-5.57,2.05-11.67,2.61-17.29,4.56-13.3,4.6-25.72,10.78-33.3,23.47-7.69,12.86-3.73,26.13,9.53,32.95,1.48.76,2.94,1.58,5.61,3.02-16.77,10.97-25.6,26.11-24.98,45.33.62,19.46,12.95,33.27,25.43,46.94-30.28-12.16-54.48-33.89-81.87-50.77,1.39,2.58,3.49,4.32,5.55,6.1,19.09,16.46,38.17,32.92,57.24,49.4,1.77,1.53,3.58,3.06,5.11,4.82,9.59,11.1,18.8,22.54,28.74,33.31,8.92,9.66,17.6,19.48,21.46,32.21,1.92,6.34,5.24,7.46,11.08,7.44,46.38-.19,92.77-.5,139.14.18,11.37.17,19.59-3.82,26.04-11.96,4.16-5.24,8.04-11.33,9.86-17.67,3.58-12.45,11.04-18.78,23.77-19.27,9.07-.35,15.29-5.12,19.15-12.92,5.61-11.34,14.27-19.54,25.06-25.78,1.64-.95,3.12-2.19,4.67-3.3-.26-.62-.52-1.25-.78-1.87Zm-266.22.6c-.31,3.4-.6,6.82-.59,10.23.02,4.83-1.87,6.69-6.72,5.18-3.25-1.01-6.56-2.01-9.91-2.53-9.27-1.45-9.83-3.54-10.8-14.28-.03-7.8,3.57-11.86,11.4-12.59,1.89-.18,3.84.03,5.73.29q11.99,1.66,10.88,13.71Zm4.97-88.94c-.34,1.45-2.86,3.15-4.56,3.38-7.6,1.01-15.27,1.55-22.91,2.23-4,.36-5.14-1.6-4.92-5.4.49-8.6,5.05-15.4,13.45-17.29,6.71-1.51,13.75-1.57,22.19-2.43-1.23,7.87-1.88,13.77-3.25,19.5Zm48.14,164.95c-3.91,0-7.07-3.17-7.07-7.07s3.17-7.07,7.07-7.07,7.07,3.17,7.07,7.07-3.17,7.07-7.07,7.07Zm20.78,0c-3.91,0-7.07-3.17-7.07-7.07s3.17-7.07,7.07-7.07,7.07,3.17,7.07,7.07-3.17,7.07-7.07,7.07Zm14-188.45c.04-.81.25-1.67.04-2.42-4.84-17.45,8.81-25.89,25.18-25.73-1.17,8.39-2.31,16.66-3.52,24.93-.08.57-.58,1.45-1,1.53-6.84,1.26-13.51,4.99-20.71,1.69Zm7.53,188.45c-3.91,0-7.07-3.17-7.07-7.07s3.17-7.07,7.07-7.07,7.07,3.17,7.07,7.07-3.17,7.07-7.07,7.07Z"/><g><path class="cls-1" d="m263.3,292.1c-24.73-15.29-105.47-38.88-84.73,16.64-25.03-15.58-35.49-91.53,16.92-109.19,17.5-5.9,90.42-22.58,90.42-22.58,0,0-58.14,60.94-22.62,115.14Z"/><path class="cls-1" d="m258.4,163.6c-35.04-7.96-69.19-5.68-59.99,18.95-22.65-9.7-27.09-37.87-2.3-48.56,7.52-3.25,77.87-19.96,77.87-19.96,0,0-51.78,32.09-15.57,49.57Z"/><path class="cls-1" d="m146.83,197.86c-35.04-7.96-69.19-5.68-59.99,18.95-22.65-9.7-27.09-37.87-2.3-48.56,7.52-3.25,77.87-19.96,77.87-19.96,0,0-51.78,32.09-15.57,49.57Z"/><path class="cls-1" d="m139.6,286.86c-16.61-10.27-70.81-26.1-56.88,11.17-16.8-10.46-23.82-61.45,11.36-73.31,11.75-3.96,60.7-15.16,60.7-15.16,0,0-39.03,40.91-15.18,77.3Z"/></g><path class="cls-2" d="m377.9,222.83s-41.51-8.47-57.6,0c9.04,13.7,0,40.98,0,40.98,0,0,37.23-6.43,57.6,0-4.66-15.39,0-40.98,0-40.98Zm-26.27,23.06l.56-6.86-5.14-.42c-1.27-.1-1.86.4-1.97,1.67l-1.11,13.52-6.25-.51,1.1-13.36c.43-5.26,3.43-7.36,8.1-6.98l5.74.47.58-7.03,11.22,10.74-12.82,8.77Z"/></svg>