<svg id="Layer_1" data-name="Layer 1" xmlns="http://www.w3.org/2000/svg" viewBox="0 0 600 600"><defs><style>.cls-1{fill:#1b242e;}.cls-2{fill:none;stroke:#1b242e;stroke-miterlimit:10;stroke-width:49.05px;}</style></defs><path class="cls-1" d="M290.19,187.68a47.63,47.63,0,0,1,91.59,24.64l57,15.34a165,165,0,0,0,2.57-28.33A141.38,141.38,0,0,0,166,154.26Z"/><path class="cls-1" d="M374.86,230.09a47.62,47.62,0,0,1-87.6-23.57L161.17,172.6a142.59,142.59,0,0,0-2.53,26.73c0,78.07,63.29,177.13,141.36,177.13,62.95,0,116.28-64.42,134.58-130.3Z"/><line class="cls-2" x1="38.33" y1="390.83" x2="566" y2="532.22"/><line class="cls-2" x1="38.33" y1="532.22" x2="566" y2="390.83"/></svg>